<svg width="35" height="30" viewBox="0 0 35 30" fill="none" xmlns="http://www.w3.org/2000/svg">
<rect width="35" height="30" fill="#F5F5F5"/>
<g id="FooterSekcija">
<rect id="Rectangle 33" x="-1502" y="-144" width="1920" height="771" fill="#003087"/>
<g id="SekcijaZaDru&#197;&#161;tveneMre&#197;&#190;e">
<g id="SekcijaZaDru&#197;&#161;tveneMre&#197;&#190;e_2">
<g id="TW" clip-path="url(#clip0_0_1)">
<path id="Vector" d="M18 -5C6.95599 -5 -2 3.95599 -2 15C-2 26.044 6.95599 35 18 35C29.044 35 38 26.044 38 15C38 3.95599 29.044 -5 18 -5Z" fill="white"/>
<g id="Twitter X 1">
<g id="layer1">
<path id="path1009" d="M7.05497 3.49463L15.1599 16.1865L7.00378 26.5055H8.83941L15.9801 17.4711L21.7496 26.5055H27.9963L19.4353 13.0998L27.027 3.49463H25.1914L18.6151 11.8152L13.3017 3.49463H7.05497ZM9.75439 5.07817H12.6241L25.2965 24.9218H22.4267L9.75439 5.07817Z" fill="#003087"/>
</g>
</g>
</g>
</g>
</g>
</g>
<defs>
<clipPath id="clip0_0_1">
<rect width="40" height="40" fill="white" transform="translate(-2 -5)"/>
</clipPath>
</defs>
</svg>
